<svg xmlns="http://www.w3.org/2000/svg" xmlns:xlink="http://www.w3.org/1999/xlink" width="500" zoomAndPan="magnify" viewBox="0 0 375 374.999991" height="500" preserveAspectRatio="xMidYMid meet" version="1.0"><defs><clipPath id="02400a4705"><path d="M 45.835938 13.535156 L 153 13.535156 L 153 313 L 45.835938 313 Z M 45.835938 13.535156 " clip-rule="nonzero"/></clipPath><clipPath id="c4963939d6"><path d="M 167 71 L 274 71 L 274 370.535156 L 167 370.535156 Z M 167 71 " clip-rule="nonzero"/></clipPath><clipPath id="18f66a577c"><path d="M 310 25 L 329.335938 25 L 329.335938 44 L 310 44 Z M 310 25 " clip-rule="nonzero"/></clipPath></defs><rect x="-37.5" width="450" fill="#ffffff" y="-37.499999" height="449.999989" fill-opacity="1"/><rect x="-37.5" width="450" fill="#ffffff" y="-37.499999" height="449.999989" fill-opacity="1"/><g clip-path="url(#02400a4705)"><path fill="#004aad" d="M 45.929688 181.523438 L 45.929688 144.230469 C 53.488281 143.816406 59.1875 142.675781 63.019531 140.808594 C 66.851562 138.945312 70.167969 135.816406 72.964844 131.410156 C 75.761719 127.007812 77.679688 121.492188 78.714844 114.859375 C 79.542969 109.886719 79.957031 101.238281 79.957031 88.910156 C 79.957031 68.8125 80.890625 54.800781 82.753906 46.875 C 84.621094 38.953125 87.984375 32.578125 92.855469 27.761719 C 97.722656 22.945312 104.820312 19.140625 114.144531 16.34375 C 120.460938 14.476562 130.40625 13.546875 143.976562 13.546875 L 152.214844 13.546875 L 152.214844 50.6875 C 140.714844 50.6875 133.335938 51.332031 130.074219 52.625 C 126.808594 53.925781 124.402344 55.886719 122.84375 58.527344 C 121.292969 61.171875 120.515625 65.707031 120.515625 72.128906 C 120.515625 78.652344 120.046875 91.035156 119.117188 109.265625 C 118.597656 119.519531 117.253906 127.835938 115.078125 134.207031 C 112.902344 140.578125 110.128906 145.835938 106.761719 149.976562 C 103.394531 154.121094 98.238281 158.421875 91.300781 162.878906 C 97.414062 166.398438 102.410156 170.515625 106.296875 175.230469 C 110.183594 179.945312 113.15625 185.667969 115.230469 192.402344 C 117.304688 199.136719 118.652344 208.148438 119.269531 219.4375 C 119.996094 236.636719 120.359375 247.617188 120.359375 252.382812 C 120.359375 259.21875 121.1875 263.980469 122.84375 266.679688 C 124.503906 269.371094 127.015625 271.417969 130.382812 272.816406 C 133.746094 274.214844 141.027344 274.914062 152.214844 274.914062 L 152.214844 312.207031 L 143.976562 312.207031 C 129.992188 312.207031 119.269531 311.089844 111.8125 308.867188 C 104.351562 306.640625 98.0625 302.933594 92.933594 297.757812 C 87.804688 292.574219 84.359375 286.175781 82.597656 278.5625 C 80.835938 270.949219 79.957031 258.960938 79.957031 242.59375 C 79.957031 223.535156 79.128906 211.152344 77.472656 205.453125 C 75.191406 197.167969 71.746094 191.234375 67.136719 187.660156 C 62.527344 184.085938 55.457031 182.042969 45.929688 181.523438 " fill-opacity="1" fill-rule="nonzero"/></g><path fill="#eeb30d" d="M 281.671875 90.914062 L 257.351562 90.914062 L 257.351562 66.589844 L 281.671875 66.589844 L 281.671875 90.914062 " fill-opacity="1" fill-rule="nonzero"/><path fill="#eeb30d" d="M 275.933594 139.554688 L 257.351562 139.554688 L 257.351562 120.972656 L 275.933594 120.972656 L 275.933594 139.554688 " fill-opacity="1" fill-rule="nonzero"/><g clip-path="url(#c4963939d6)"><path fill="#eeb30d" d="M 205.175781 109.496094 L 205.175781 90.914062 L 223.757812 90.914062 L 223.757812 109.496094 Z M 252.445312 196.375 C 247.78125 192.800781 244.3125 186.871094 242.03125 178.582031 C 240.78125 173.90625 240.03125 164.945312 239.789062 151.714844 L 223.757812 151.714844 L 223.757812 127.394531 L 239.4375 127.394531 C 239.046875 118.015625 238.226562 110.707031 236.980469 105.46875 C 235.167969 97.855469 231.722656 91.433594 226.648438 86.203125 C 221.574219 80.972656 215.304688 77.265625 207.84375 75.089844 C 200.386719 72.914062 189.667969 71.828125 175.679688 71.828125 L 167.445312 71.828125 L 167.445312 108.964844 C 179.148438 108.964844 186.6875 109.664062 190.054688 111.0625 C 193.417969 112.464844 195.75 114.457031 197.046875 117.046875 C 198.339844 119.636719 199.039062 124.816406 199.144531 132.585938 C 199.660156 157.242188 200.488281 173.195312 201.628906 180.449219 C 203.386719 191.015625 206.703125 199.714844 211.574219 206.550781 C 215.09375 211.316406 220.691406 216.1875 228.359375 221.160156 C 222.453125 224.578125 217.605469 228.539062 213.828125 233.046875 C 210.042969 237.554688 207.015625 243.042969 204.738281 249.519531 C 202.460938 255.992188 201.0625 264.617188 200.542969 275.390625 C 199.710938 293.210938 199.273438 305.277344 199.222656 311.597656 C 199.167969 317.914062 198.339844 322.398438 196.734375 325.039062 C 195.128906 327.679688 192.617188 329.699219 189.199219 331.101562 C 185.78125 332.5 178.527344 333.199219 167.445312 333.199219 L 167.445312 370.492188 L 175.679688 370.492188 C 189.25 370.492188 199.195312 369.558594 205.511719 367.695312 C 214.941406 364.894531 222.085938 361.089844 226.960938 356.273438 C 231.828125 351.457031 235.167969 345.058594 236.980469 337.082031 C 238.792969 329.101562 239.703125 315.066406 239.703125 294.96875 C 239.703125 282.746094 240.113281 274.148438 240.945312 269.175781 C 242.082031 262.546875 244.027344 257.03125 246.769531 252.625 C 249.515625 248.222656 252.804688 245.089844 256.640625 243.226562 C 260.46875 241.359375 266.171875 240.21875 273.734375 239.804688 L 273.734375 202.511719 C 264.199219 201.996094 257.105469 199.945312 252.445312 196.375 " fill-opacity="1" fill-rule="nonzero"/></g><g clip-path="url(#18f66a577c)"><path fill="#eeb30d" d="M 329.09375 43.675781 L 310.511719 43.675781 L 310.511719 25.09375 L 329.09375 25.09375 L 329.09375 43.675781 " fill-opacity="1" fill-rule="nonzero"/></g><path fill="#eeb30d" d="M 235.917969 66.589844 L 201.230469 66.589844 L 201.230469 31.902344 L 235.917969 31.902344 L 235.917969 66.589844 " fill-opacity="1" fill-rule="nonzero"/></svg>